<?xml version="1.0" encoding="utf-8"?>
<!-- Generator: Adobe Illustrator 20.1.0, SVG Export Plug-In . SVG Version: 6.00 Build 0)  -->
<svg version="1.1" id="Layer_1" xmlns="http://www.w3.org/2000/svg" xmlns:xlink="http://www.w3.org/1999/xlink" x="0px" y="0px"
	 viewBox="0 0 1021.2 370.2" style="enable-background:new 0 0 1021.2 370.2;" xml:space="preserve">
<style type="text/css">
	.st0{fill:#FFFFFF;}
</style>
<circle cx="-357" cy="-398.5" r="0"/>
<polygon class="st0" points="853.2,249.8 763.5,160.1 775,148.6 853.2,226.8 931.5,148.6 943,160.1 "/>
<g>
	<path class="st0" d="M123.1,264.6c-18.5,0-33-4.4-44.9-15.7l10.7-10.7c8.7,9.2,20.4,12.7,34.1,12.7c18,0,29-6.5,29-19.3
		c0-9.7-5.5-14.9-18.2-16l-18-1.5c-21.3-1.8-32.7-11.3-32.7-29.4c0-20,16.9-32.1,40.2-32.1c15.6,0,29.7,3.7,39.4,11.8l-10.4,10.4
		c-7.8-6-17.8-8.7-29-8.7c-16,0-24.5,6.8-24.5,18c0,9.3,5.3,14.9,19.2,16l17.7,1.5c19.2,1.8,32.2,9.2,32.2,29.7
		C167.7,252.4,149.6,264.6,123.1,264.6z"/>
	<path class="st0" d="M241.7,264.6c-27.7,0-48.6-18.6-48.6-56s21-56,48.6-56c15.2,0,24.6,4,36.1,16.3l-11,10.1
		c-8.1-9.2-14.7-12.1-25.2-12.1c-10.7,0-19.7,4.4-25.3,12.4c-5.2,7.1-7.1,15.6-7.1,29.4c0,13.7,2,22.2,7.1,29.4
		c5.7,8.1,14.7,12.4,25.3,12.4c10.4,0,16.9-3.3,25.2-12.4l11,10.4C266.2,260.6,256.7,264.6,241.7,264.6z"/>
	<path class="st0" d="M369.1,174.7c-6-6-10.4-8-18.9-8c-16,0-26.3,12.7-26.3,29.4v67.1h-16V153.8h16v13.3c6-9.2,18-14.7,30.5-14.7
		c10.4,0,18.5,2.4,26.3,10.1L369.1,174.7z"/>
	<path class="st0" d="M464.4,252.2c-7.7,7.7-18,12.4-31.4,12.4c-13.3,0-23.7-4.8-31.4-12.4c-11.2-11.3-13.3-26.6-13.3-43.5
		s2.2-32.2,13.3-43.5c7.7-7.7,18-12.4,31.4-12.4c13.4,0,23.7,4.8,31.4,12.4c11.2,11.3,13.3,26.6,13.3,43.5
		C477.7,225.3,475.3,240.7,464.4,252.2z M453.1,174.7c-5.2-5.2-12.1-8-20-8s-14.7,2.9-19.8,8c-8,8-8.8,21.6-8.8,33.7
		c0,12.1,0.9,25.7,8.8,33.7c5.2,5.2,12,8,19.8,8c7.8,0,14.9-2.9,20-8c8-8,8.7-21.6,8.7-33.7C461.7,196.4,460.8,182.7,453.1,174.7z"
		/>
	<path class="st0" d="M539.2,263.1c-19.2,0-27.8-12.4-27.8-29V105h16v128.4c0,10.7,3.5,16,14.7,16h8.7v13.7L539.2,263.1L539.2,263.1
		z"/>
	<path class="st0" d="M605.2,263.1c-19.2,0-27.8-12.4-27.8-29V105h16v128.4c0,10.7,3.5,16,14.7,16h8.7v13.7L605.2,263.1L605.2,263.1
		z"/>
</g>
</svg>
