<?xml version="1.0" encoding="utf-8"?>
<!-- Generator: Adobe Illustrator 16.0.0, SVG Export Plug-In . SVG Version: 6.00 Build 0)  -->
<!DOCTYPE svg PUBLIC "-//W3C//DTD SVG 1.1//EN" "http://www.w3.org/Graphics/SVG/1.1/DTD/svg11.dtd">
<svg version="1.1" id="Layer_1" xmlns="http://www.w3.org/2000/svg" xmlns:xlink="http://www.w3.org/1999/xlink" x="0px" y="0px"
	 width="150px" height="25px" viewBox="0.338 1.167 150 25" enable-background="new 0.338 1.167 150 25" xml:space="preserve">
<g>
	<path fill="#FFFFFF" d="M149.343,2.162v23.01H1.333V2.162H149.343 M150.338,1.167h-150v25h150V1.167L150.338,1.167z"/>
</g>
<g>
	<path fill="#FFFFFF" d="M77.663,13.028c-0.017-1.318-0.386-2.321-1.107-3.01c-0.722-0.688-1.775-1.032-3.159-1.032
		c-0.852,0-1.623,0.18-2.316,0.539c-0.691,0.359-1.243,0.853-1.651,1.482c-0.409,0.63-0.613,1.292-0.613,1.984h2.216
		c0-0.61,0.208-1.112,0.625-1.508c0.417-0.397,0.96-0.595,1.627-0.595c0.734,0,1.28,0.171,1.64,0.513
		c0.358,0.342,0.538,0.918,0.538,1.727v1.439h-1.627c-1.627,0.018-2.908,0.43-3.842,1.239c-0.936,0.809-1.402,1.903-1.402,3.279
		c0,1.251,0.345,2.221,1.033,2.91c0.688,0.687,1.646,1.032,2.871,1.032c1.219,0,2.22-0.577,3.004-1.729
		c0.059,0.693,0.154,1.186,0.287,1.478h2.304v-0.2c-0.276-0.767-0.417-1.674-0.426-2.716V13.028z M75.461,19.435
		c-0.225,0.451-0.584,0.827-1.076,1.127s-1.01,0.451-1.553,0.451c-0.734,0-1.256-0.174-1.563-0.521
		c-0.309-0.347-0.464-0.903-0.464-1.671c0-0.817,0.305-1.453,0.914-1.908c0.608-0.454,1.439-0.69,2.49-0.707h1.252V19.435z"/>
	<path fill="#FFFFFF" d="M142.555,19.861v-6.833c-0.018-1.318-0.387-2.321-1.107-3.01c-0.723-0.688-1.777-1.032-3.16-1.032
		c-0.852,0-1.623,0.18-2.314,0.539c-0.693,0.359-1.244,0.853-1.654,1.482c-0.406,0.63-0.613,1.292-0.613,1.984h2.217
		c0-0.61,0.209-1.112,0.625-1.508c0.418-0.397,0.959-0.595,1.627-0.595c0.734,0,1.281,0.171,1.639,0.513
		c0.359,0.342,0.539,0.918,0.539,1.727v1.439h-1.627c-1.625,0.018-2.908,0.43-3.842,1.239c-0.936,0.809-1.402,1.903-1.402,3.279
		c0,1.251,0.346,2.221,1.033,2.91c0.688,0.687,1.645,1.032,2.871,1.032c1.219,0,2.221-0.577,3.006-1.729
		c0.057,0.693,0.152,1.186,0.285,1.478h2.305v-0.2C142.705,21.81,142.562,20.903,142.555,19.861z M140.352,19.435
		c-0.225,0.451-0.584,0.827-1.076,1.127s-1.01,0.451-1.551,0.451c-0.736,0-1.256-0.174-1.566-0.521
		c-0.307-0.347-0.463-0.903-0.463-1.671c0-0.817,0.307-1.453,0.916-1.908c0.607-0.454,1.438-0.69,2.488-0.707h1.252V19.435z"/>
	<path fill="#FFFFFF" d="M92.898,14.44c-0.684,0.65-1.026,1.346-1.026,2.086c0,0.656,0.17,1.188,0.509,1.596
		c0.34,0.406,0.807,0.611,1.4,0.611c0.662,0,1.271-0.311,1.825-0.934l-2.453-3.573L92.898,14.44z"/>
	<path fill="#FFFFFF" d="M93.51,12.24l0.654-0.56c0.344-0.277,0.58-0.544,0.703-0.802c0.125-0.257,0.188-0.573,0.188-0.946
		s-0.113-0.688-0.34-0.942s-0.512-0.382-0.856-0.382c-0.368,0-0.655,0.158-0.862,0.475c-0.206,0.317-0.309,0.713-0.309,1.188
		c0,0.305,0.076,0.619,0.229,0.942C93.068,11.536,93.267,11.879,93.51,12.24z"/>
	<path fill="#FFFFFF" d="M61.857,8.986c-1.335,0-2.432,0.572-3.291,1.715l-0.062-1.464h-2.09v13.541h2.215v-9.836
		c0.267-0.592,0.619-1.072,1.057-1.439c0.438-0.368,0.933-0.551,1.482-0.551c0.711,0,1.241,0.224,1.596,0.669
		c0.355,0.447,0.533,1.2,0.533,2.259v8.898h2.202v-8.998C65.465,10.583,64.252,8.986,61.857,8.986z"/>
	<path fill="#FFFFFF" d="M37.179,8.986c-1.335,0-2.432,0.572-3.292,1.715l-0.062-1.464h-2.09v13.541h2.216v-9.836
		c0.267-0.592,0.62-1.072,1.058-1.439c0.438-0.368,0.932-0.551,1.482-0.551c0.709,0,1.24,0.224,1.596,0.669
		c0.355,0.447,0.532,1.2,0.532,2.259v8.898h2.202v-8.998C40.787,10.583,39.572,8.986,37.179,8.986z"/>
	<path fill="#FFFFFF" d="M52.984,13.028c-0.017-1.318-0.386-2.321-1.107-3.01c-0.722-0.688-1.775-1.032-3.16-1.032
		c-0.852,0-1.622,0.18-2.314,0.539c-0.693,0.359-1.244,0.853-1.652,1.482c-0.408,0.63-0.613,1.292-0.613,1.984h2.215
		c0-0.61,0.209-1.112,0.627-1.508c0.416-0.397,0.959-0.595,1.626-0.595c0.733,0,1.28,0.171,1.64,0.513
		c0.359,0.342,0.538,0.918,0.538,1.727v1.439h-1.626c-1.628,0.018-2.909,0.43-3.843,1.239c-0.935,0.809-1.401,1.903-1.401,3.279
		c0,1.251,0.344,2.221,1.031,2.91c0.688,0.687,1.646,1.032,2.873,1.032c1.218,0,2.219-0.577,3.004-1.729
		c0.057,0.693,0.154,1.186,0.287,1.478h2.303v-0.2c-0.275-0.767-0.418-1.674-0.426-2.716V13.028z M50.782,19.435
		c-0.226,0.451-0.584,0.827-1.077,1.127c-0.492,0.3-1.009,0.451-1.551,0.451c-0.734,0-1.257-0.174-1.564-0.521
		c-0.309-0.347-0.463-0.903-0.463-1.671c0-0.817,0.304-1.453,0.913-1.908c0.608-0.454,1.438-0.69,2.491-0.707h1.251V19.435z"/>
	<path fill="#FFFFFF" d="M28.307,13.028c-0.018-1.318-0.387-2.321-1.107-3.01c-0.723-0.688-1.775-1.032-3.16-1.032
		c-0.852,0-1.623,0.18-2.316,0.539c-0.691,0.359-1.242,0.853-1.65,1.482c-0.41,0.63-0.613,1.292-0.613,1.984h2.215
		c0-0.61,0.208-1.112,0.625-1.508c0.418-0.397,0.96-0.595,1.627-0.595c0.734,0,1.281,0.171,1.64,0.513
		c0.358,0.342,0.538,0.918,0.538,1.727v1.439h-1.627c-1.627,0.018-2.908,0.43-3.842,1.239c-0.936,0.809-1.402,1.903-1.402,3.279
		c0,1.251,0.345,2.221,1.033,2.91c0.688,0.687,1.646,1.032,2.872,1.032c1.218,0,2.22-0.577,3.004-1.729
		c0.058,0.693,0.154,1.186,0.287,1.478h2.304v-0.2c-0.276-0.767-0.418-1.674-0.426-2.716V13.028z M26.104,19.435
		c-0.225,0.451-0.584,0.827-1.076,1.127s-1.01,0.451-1.552,0.451c-0.734,0-1.257-0.174-1.564-0.521s-0.463-0.903-0.463-1.671
		c0-0.817,0.304-1.453,0.913-1.908c0.609-0.454,1.439-0.69,2.49-0.707h1.252V19.435z"/>
	<path fill="#FFFFFF" d="M126.297,8.986c-1.576,0-2.805,0.574-3.684,1.721c-0.881,1.146-1.322,2.73-1.322,4.749v1.639
		c0.018,1.945,0.477,3.419,1.377,4.424c0.902,1.006,2.195,1.51,3.879,1.51c1.971,0,3.434-0.677,4.395-2.027l-1.152-1.403
		c-0.434,0.535-0.898,0.925-1.395,1.172c-0.496,0.245-1.07,0.368-1.721,0.368c-1.027,0-1.812-0.33-2.359-0.988
		c-0.547-0.659-0.82-1.715-0.82-3.166V16.67h7.559v-1.45c-0.018-2.137-0.416-3.71-1.201-4.719
		C129.066,9.49,127.883,8.986,126.297,8.986z M128.838,14.767h-5.33c0.057-1.327,0.307-2.304,0.75-2.935
		c0.441-0.63,1.123-0.944,2.039-0.944c0.826,0,1.443,0.275,1.848,0.826c0.404,0.55,0.635,1.468,0.693,2.753V14.767z"/>
	<path fill="#FFFFFF" d="M13.626,13.178c0.727-0.358,1.301-0.863,1.728-1.515c0.426-0.65,0.639-1.4,0.639-2.252
		c0-1.618-0.42-2.832-1.258-3.641c-0.839-0.809-2.089-1.214-3.749-1.214H5.792v18.221h5.368c1.661,0,2.938-0.467,3.836-1.401
		c0.896-0.936,1.345-2.221,1.345-3.855c0-1.093-0.244-2.026-0.731-2.803C15.122,13.941,14.46,13.428,13.626,13.178z M8.082,6.52
		h2.904c0.909,0,1.585,0.228,2.027,0.684c0.442,0.456,0.663,1.186,0.663,2.188c0,0.887-0.243,1.598-0.731,2.132
		c-0.489,0.535-1.128,0.803-1.921,0.803H8.082V6.52z M13.276,19.956c-0.509,0.57-1.197,0.855-2.065,0.855H8.082v-6.557h3.179
		c1.853,0,2.778,1.097,2.778,3.291C14.039,18.581,13.785,19.384,13.276,19.956z"/>
	<path fill="#FFFFFF" d="M94.342,5.022c-4.773,0-8.645,3.871-8.645,8.645c0,4.774,3.871,8.645,8.645,8.645
		c4.775,0,8.645-3.87,8.645-8.645C102.986,8.893,99.117,5.022,94.342,5.022z M97.006,19.844l-0.627-0.908
		c-0.323,0.334-0.713,0.598-1.172,0.79c-0.458,0.19-0.933,0.288-1.426,0.288c-1.035,0-1.861-0.323-2.478-0.968
		c-0.617-0.646-0.925-1.485-0.925-2.521c0-0.582,0.14-1.121,0.42-1.617c0.279-0.494,0.815-1.069,1.607-1.726
		c-0.463-0.651-0.781-1.187-0.955-1.608c-0.172-0.421-0.258-0.839-0.258-1.251c0-0.945,0.242-1.682,0.725-2.21
		c0.484-0.53,1.135-0.794,1.949-0.794c0.746,0,1.359,0.249,1.841,0.747c0.481,0.498,0.722,1.121,0.722,1.867
		c0,0.487-0.097,0.936-0.289,1.35c-0.191,0.413-0.531,0.831-1.018,1.256l-0.875,0.747l2.173,3.132
		c0.267-0.674,0.399-1.433,0.399-2.274h1.34c0,1.425-0.287,2.602-0.865,3.529l1.51,2.173H97.006z"/>
	<path fill="#FFFFFF" d="M117.301,20.648c-0.176-0.274-0.264-0.68-0.264-1.215v-8.408h2.039V9.237h-2.039V5.957h-2.203v3.279h-2.064
		v1.789h2.064v8.41c0,1.144,0.23,2.028,0.689,2.652c0.459,0.626,1.125,0.94,2.002,0.94c0.525,0,1.039-0.084,1.539-0.249l0.023-1.867
		c-0.299,0.102-0.596,0.151-0.887,0.151C117.775,21.063,117.477,20.925,117.301,20.648z"/>
</g>
</svg>
