<?xml version="1.0" encoding="utf-8"?>
<!-- Generator: Adobe Illustrator 16.0.0, SVG Export Plug-In . SVG Version: 6.00 Build 0)  -->
<!DOCTYPE svg PUBLIC "-//W3C//DTD SVG 1.1//EN" "http://www.w3.org/Graphics/SVG/1.1/DTD/svg11.dtd">
<svg version="1.1" id="Layer_1" xmlns="http://www.w3.org/2000/svg" xmlns:xlink="http://www.w3.org/1999/xlink" x="0px" y="0px"
	 width="200px" height="25px" viewBox="0 0 200 25" enable-background="new 0 0 200 25" xml:space="preserve">
<path fill="#FFFFFF" d="M90.04,15.359c0-0.582,0.14-1.121,0.42-1.617c0.28-0.494,0.816-1.069,1.608-1.726
	c-0.464-0.651-0.782-1.187-0.955-1.608c-0.172-0.421-0.258-0.839-0.258-1.251c0-0.945,0.242-1.682,0.725-2.21
	c0.484-0.53,1.134-0.794,1.948-0.794c0.747,0,1.36,0.249,1.841,0.747c0.481,0.498,0.721,1.121,0.721,1.867
	c0,0.487-0.096,0.936-0.289,1.35c-0.192,0.413-0.532,0.831-1.018,1.256l-0.875,0.747l2.173,3.132
	c0.266-0.674,0.399-1.433,0.399-2.274h1.341c0,1.425-0.288,2.602-0.866,3.529l1.51,2.173h-1.799l-0.627-0.908
	c-0.323,0.334-0.713,0.598-1.171,0.79c-0.458,0.19-0.933,0.288-1.426,0.288c-1.036,0-1.862-0.323-2.478-0.968
	C90.348,17.234,90.04,16.395,90.04,15.359z M93.443,17.566c0.662,0,1.27-0.311,1.825-0.934l-2.453-3.573l-0.254,0.214
	c-0.685,0.65-1.027,1.346-1.027,2.086c0,0.656,0.17,1.188,0.509,1.596C92.382,17.361,92.85,17.566,93.443,17.566z M92.349,9.105
	c0,0.305,0.076,0.619,0.229,0.942c0.153,0.322,0.351,0.665,0.594,1.026l0.653-0.56c0.345-0.277,0.58-0.544,0.704-0.802
	c0.125-0.257,0.187-0.573,0.187-0.946s-0.113-0.688-0.339-0.942c-0.227-0.254-0.512-0.382-0.857-0.382
	c-0.368,0-0.655,0.158-0.862,0.475S92.349,8.63,92.349,9.105z"/>
<g>
	<path fill="#FFFFFF" d="M125.959,9.722c-0.916,0-1.598,0.314-2.039,0.944c-0.443,0.631-0.693,1.608-0.75,2.935h5.33v-0.3
		c-0.059-1.285-0.289-2.203-0.693-2.753C127.402,9.997,126.785,9.722,125.959,9.722z"/>
	<path fill="#FFFFFF" d="M71.38,15.747c-0.609,0.455-0.913,1.091-0.913,1.908c0,0.768,0.155,1.324,0.463,1.671
		c0.308,0.347,0.83,0.521,1.564,0.521c0.542,0,1.06-0.151,1.552-0.451c0.493-0.3,0.852-0.676,1.076-1.127V15.04h-1.251
		C72.819,15.057,71.989,15.293,71.38,15.747z"/>
	<path fill="#FFFFFF" d="M46.702,15.747c-0.609,0.455-0.913,1.091-0.913,1.908c0,0.768,0.154,1.324,0.462,1.671
		s0.831,0.521,1.564,0.521c0.542,0,1.06-0.151,1.552-0.451c0.493-0.3,0.852-0.676,1.077-1.127V15.04h-1.251
		C48.141,15.057,47.311,15.293,46.702,15.747z"/>
	<path fill="#FFFFFF" d="M10.922,13.088H7.744v6.557h3.129c0.868,0,1.556-0.285,2.065-0.855c0.509-0.572,0.763-1.375,0.763-2.41
		C13.701,14.185,12.775,13.088,10.922,13.088z"/>
	<path fill="#FFFFFF" d="M22.023,15.747c-0.609,0.455-0.913,1.091-0.913,1.908c0,0.768,0.155,1.324,0.463,1.671
		s0.83,0.521,1.564,0.521c0.542,0,1.06-0.151,1.551-0.451c0.493-0.3,0.852-0.676,1.077-1.127V15.04h-1.251
		C23.462,15.057,22.632,15.293,22.023,15.747z"/>
	<path fill="#FFFFFF" d="M12.606,10.358c0.488-0.535,0.731-1.246,0.731-2.132c0-1.003-0.221-1.732-0.663-2.188
		c-0.442-0.456-1.118-0.684-2.027-0.684H7.744v5.808h2.941C11.478,11.161,12.117,10.893,12.606,10.358z"/>
	<path fill="#FFFFFF" d="M0,0v25h200V0H0z M14.659,20.209c-0.898,0.935-2.176,1.401-3.836,1.401H5.454V3.39h5.193
		c1.66,0,2.909,0.405,3.749,1.214c0.838,0.809,1.257,2.023,1.257,3.641c0,0.852-0.213,1.602-0.638,2.252
		c-0.426,0.652-1.001,1.156-1.728,1.515c0.834,0.25,1.496,0.763,1.984,1.54c0.487,0.776,0.731,1.71,0.731,2.803
		C16.003,17.988,15.555,19.273,14.659,20.209z M28.394,21.61H26.09c-0.133-0.292-0.229-0.784-0.287-1.478
		c-0.785,1.151-1.786,1.729-3.004,1.729c-1.227,0-2.184-0.346-2.872-1.032c-0.688-0.689-1.033-1.659-1.033-2.91
		c0-1.376,0.467-2.471,1.402-3.279c0.934-0.81,2.215-1.222,3.842-1.239h1.627v-1.439c0-0.809-0.179-1.385-0.538-1.727
		c-0.359-0.341-0.906-0.513-1.64-0.513c-0.667,0-1.209,0.198-1.627,0.595c-0.417,0.396-0.625,0.898-0.625,1.508H19.12
		c0-0.692,0.204-1.354,0.613-1.984c0.409-0.629,0.959-1.124,1.651-1.482c0.693-0.359,1.464-0.539,2.316-0.539
		c1.385,0,2.438,0.345,3.16,1.032c0.721,0.689,1.09,1.692,1.108,3.01v6.833c0.007,1.042,0.149,1.949,0.425,2.716V21.61z
		 M40.482,21.61H38.28v-8.898c0-1.06-0.177-1.812-0.532-2.259c-0.355-0.446-0.887-0.669-1.596-0.669
		c-0.55,0-1.045,0.184-1.483,0.551c-0.438,0.367-0.791,0.847-1.057,1.439v9.836h-2.216V8.07h2.09l0.062,1.464
		c0.86-1.143,1.957-1.715,3.292-1.715c2.394,0,3.608,1.598,3.642,4.793V21.61z M53.072,21.61h-2.303
		c-0.133-0.292-0.23-0.784-0.288-1.478c-0.785,1.151-1.786,1.729-3.004,1.729c-1.227,0-2.184-0.346-2.872-1.032
		c-0.688-0.689-1.032-1.659-1.032-2.91c0-1.376,0.467-2.471,1.402-3.279c0.934-0.81,2.215-1.222,3.842-1.239h1.626v-1.439
		c0-0.809-0.179-1.385-0.538-1.727C49.547,9.893,49,9.722,48.266,9.722c-0.667,0-1.209,0.198-1.626,0.595
		c-0.417,0.396-0.626,0.898-0.626,1.508h-2.215c0-0.692,0.205-1.354,0.613-1.984c0.409-0.629,0.959-1.124,1.652-1.482
		c0.693-0.359,1.464-0.539,2.315-0.539c1.385,0,2.438,0.345,3.16,1.032c0.722,0.689,1.091,1.692,1.108,3.01v6.833
		c0.008,1.042,0.149,1.949,0.425,2.716V21.61z M65.161,21.61h-2.203v-8.898c0-1.06-0.177-1.812-0.532-2.259
		c-0.355-0.446-0.886-0.669-1.596-0.669c-0.55,0-1.044,0.184-1.483,0.551c-0.438,0.367-0.79,0.847-1.057,1.439v9.836h-2.215V8.07
		h2.09l0.063,1.464c0.859-1.143,1.956-1.715,3.291-1.715c2.395,0,3.608,1.598,3.642,4.793V21.61z M77.75,21.61h-2.303
		c-0.133-0.292-0.229-0.784-0.288-1.478c-0.784,1.151-1.786,1.729-3.003,1.729c-1.226,0-2.184-0.346-2.872-1.032
		c-0.688-0.689-1.033-1.659-1.033-2.91c0-1.376,0.467-2.471,1.402-3.279c0.934-0.81,2.215-1.222,3.842-1.239h1.626v-1.439
		c0-0.809-0.179-1.385-0.538-1.727c-0.359-0.341-0.906-0.513-1.64-0.513c-0.667,0-1.21,0.198-1.627,0.595
		c-0.417,0.396-0.625,0.898-0.625,1.508h-2.215c0-0.692,0.204-1.354,0.613-1.984c0.408-0.629,0.959-1.124,1.652-1.482
		c0.693-0.359,1.464-0.539,2.315-0.539c1.384,0,2.438,0.345,3.16,1.032c0.721,0.689,1.091,1.692,1.107,3.01v6.833
		c0.008,1.042,0.15,1.949,0.426,2.716V21.61z M94.004,21.145c-4.774,0-8.645-3.87-8.645-8.645c0-4.774,3.871-8.645,8.645-8.645
		c4.774,0,8.645,3.871,8.645,8.645C102.648,17.274,98.778,21.145,94.004,21.145z M118.727,21.612
		c-0.5,0.165-1.014,0.249-1.539,0.249c-0.877,0-1.543-0.314-2.002-0.94c-0.459-0.624-0.689-1.509-0.689-2.652v-8.41h-2.064V8.07
		h2.064V4.791h2.203V8.07h2.039v1.789h-2.039v8.408c0,0.535,0.088,0.94,0.264,1.215c0.176,0.276,0.475,0.415,0.9,0.415
		c0.291,0,0.588-0.05,0.887-0.151L118.727,21.612z M130.715,15.503h-7.559v0.313c0,1.451,0.273,2.507,0.82,3.166
		c0.547,0.658,1.332,0.988,2.359,0.988c0.65,0,1.225-0.123,1.721-0.368c0.496-0.247,0.961-0.637,1.395-1.172l1.152,1.403
		c-0.961,1.351-2.424,2.027-4.395,2.027c-1.684,0-2.977-0.504-3.879-1.51c-0.9-1.005-1.359-2.479-1.377-4.424v-1.639
		c0-2.019,0.441-3.603,1.322-4.749c0.879-1.147,2.107-1.721,3.684-1.721c1.586,0,2.77,0.505,3.555,1.515
		c0.785,1.009,1.184,2.582,1.201,4.719V15.503z M142.643,21.61h-2.305c-0.133-0.292-0.229-0.784-0.285-1.478
		c-0.785,1.151-1.787,1.729-3.006,1.729c-1.227,0-2.184-0.346-2.871-1.032c-0.688-0.689-1.033-1.659-1.033-2.91
		c0-1.376,0.467-2.471,1.402-3.279c0.934-0.81,2.217-1.222,3.842-1.239h1.627v-1.439c0-0.809-0.18-1.385-0.539-1.727
		c-0.357-0.341-0.904-0.513-1.639-0.513c-0.668,0-1.209,0.198-1.627,0.595c-0.416,0.396-0.625,0.898-0.625,1.508h-2.217
		c0-0.692,0.207-1.354,0.613-1.984c0.41-0.629,0.961-1.124,1.654-1.482c0.691-0.359,1.463-0.539,2.314-0.539
		c1.383,0,2.438,0.345,3.16,1.032c0.721,0.689,1.09,1.692,1.107,3.01v6.833c0.008,1.042,0.15,1.949,0.426,2.716V21.61z"/>
	<path fill="#FFFFFF" d="M136.273,15.747c-0.609,0.455-0.916,1.091-0.916,1.908c0,0.768,0.156,1.324,0.463,1.671
		c0.311,0.347,0.83,0.521,1.566,0.521c0.541,0,1.059-0.151,1.551-0.451s0.852-0.676,1.076-1.127V15.04h-1.252
		C137.711,15.057,136.881,15.293,136.273,15.747z"/>
</g>
</svg>
