<?xml version="1.0" encoding="utf-8"?>
<!-- Generator: Adobe Illustrator 25.4.1, SVG Export Plug-In . SVG Version: 6.00 Build 0)  -->
<svg version="1.1" id="Layer_1" xmlns="http://www.w3.org/2000/svg" xmlns:xlink="http://www.w3.org/1999/xlink" x="0px" y="0px"
	 viewBox="0 0 477.4 328.4" style="enable-background:new 0 0 477.4 328.4;" xml:space="preserve">
<style type="text/css">
	.st0{opacity:0.6;fill:#020202;enable-background:new    ;}
	.st1{fill:#FFFFFF;}
</style>
<rect x="-9.7" y="-6.2" class="st0" width="496.8" height="343.5"/>
<g transform="translate(128 128) scale(0.72 0.72)">
	<g transform="translate(-175.05 -175.05000000000004) scale(3.89 3.89)">
		<path class="st1" d="M84.5,64.8c-3.5,0-6.4-2.9-6.4-6.4S81,52,84.5,52s6.4,2.9,6.4,6.4S88,64.8,84.5,64.8z M84.5,53.8
			c-2.5,0-4.6,2.1-4.6,4.6S82,63,84.5,63s4.6-2.1,4.6-4.6S87.1,53.8,84.5,53.8z"/>
		<path class="st1" d="M84.5,64.8c-4.3,0-8.5-1.8-12.7-5.3c-0.3-0.3-0.5-0.6-0.5-1.1s0.2-0.8,0.5-1.1c8.4-7.1,17-7.1,25.5,0l0,0
			c0.3,0.3,0.5,0.6,0.5,1.1s-0.2,0.8-0.5,1.1C93,63,88.8,64.8,84.5,64.8z M73.3,58.4c7.6,6.2,14.9,6.2,22.5,0
			C88.2,52.2,80.8,52.2,73.3,58.4z M96.1,58.7C96.1,58.7,96.1,58.7,96.1,58.7C96.1,58.7,96.1,58.7,96.1,58.7z"/>
		<circle class="st1" cx="84.5" cy="58.4" r="2.1"/>
	</g>
</g>
</svg>
