<?xml version="1.0" encoding="utf-8"?>
<!-- Generator: Adobe Illustrator 20.1.0, SVG Export Plug-In . SVG Version: 6.00 Build 0)  -->
<svg version="1.1" id="Layer_1" xmlns="http://www.w3.org/2000/svg" xmlns:xlink="http://www.w3.org/1999/xlink" x="0px" y="0px"
	 viewBox="0 0 681 438.3" style="enable-background:new 0 0 681 438.3;" xml:space="preserve">
<style type="text/css">
	.st0{fill:#FFE200;}
</style>
<g>
	<path class="st0" d="M106,84.9c-1.8,2-4.3,3-6.9,3c-2.5,0-4.9-0.9-6.6-2.7c-2.4-2.4-2.4-5-2.4-10.5c0-5.5,0-8,2.4-10.5
		c1.7-1.7,4-2.7,6.6-2.7c5,0,8.3,3.2,9.1,7.8h-2.8C104.6,66,102.3,64,99,64c-1.7,0-3.3,0.7-4.5,1.9c-1.6,1.7-1.8,3.4-1.8,8.8
		c0,5.4,0.2,7.2,1.8,8.9c1.1,1.2,2.8,1.8,4.5,1.8c1.9,0,3.7-0.8,4.9-2.2c1.1-1.3,1.5-2.7,1.5-4.7v-2H99v-2.4h9.1v4.1
		C108.2,81.2,107.6,83.2,106,84.9z"/>
</g>
</svg>
