<?xml version="1.0" encoding="utf-8"?>
<!-- Generator: Adobe Illustrator 20.1.0, SVG Export Plug-In . SVG Version: 6.00 Build 0)  -->
<svg version="1.1" id="Layer_1" xmlns="http://www.w3.org/2000/svg" xmlns:xlink="http://www.w3.org/1999/xlink" x="0px" y="0px"
	 viewBox="0 0 681 438.3" style="enable-background:new 0 0 681 438.3;" xml:space="preserve">
<style type="text/css">
	.st0{fill:#FFE200;}
</style>
<g>
	<path class="st0" d="M92.3,86.1v-23h2.5v23H92.3z"/>
	<path class="st0" d="M109.7,86.1l-3.8-6.2l-3.9,6.2h-2.8l5.4-8.1l-5.2-7.8h2.8l3.7,5.9l3.6-5.9h2.8l-5.2,7.8l5.4,8.1H109.7z"/>
	<path class="st0" d="M130.6,83.9c-1.4,1.4-3.4,2.1-5.8,2.1h-7.9v-23h7.9c2.4,0,4.4,0.7,5.8,2.1c2.4,2.4,2.3,5.9,2.3,9.1
		C132.9,77.5,133,81.5,130.6,83.9z M128.9,66.9c-1.2-1.2-2.7-1.7-4.5-1.7h-5v18.6h5c1.8,0,3.3-0.5,4.5-1.7c1.6-1.6,1.5-5.1,1.5-7.9
		C130.4,71.5,130.5,68.6,128.9,66.9z"/>
</g>
</svg>
